<mxfile host="app.diagrams.net" modified="2023-07-16T22:34:03.355Z" agent="Mozilla/5.0 (Windows NT 10.0; Win64; x64) AppleWebKit/537.36 (KHTML, like Gecko) Chrome/114.0.0.0 Safari/537.36" etag="u8TxtWpWuMSLE7qEs62A" version="21.6.2" type="device">
  <diagram id="C5RBs43oDa-KdzZeNtuy" name="Page-1">
    <mxGraphModel dx="1195" dy="663" grid="1" gridSize="10" guides="1" tooltips="1" connect="1" arrows="1" fold="1" page="1" pageScale="1" pageWidth="827" pageHeight="1169" math="0" shadow="0">
      <root>
        <mxCell id="WIyWlLk6GJQsqaUBKTNV-0" />
        <mxCell id="WIyWlLk6GJQsqaUBKTNV-1" parent="WIyWlLk6GJQsqaUBKTNV-0" />
        <mxCell id="xQQR9ApKteh3TJZAfMFf-4" value="" style="edgeStyle=orthogonalEdgeStyle;rounded=0;orthogonalLoop=1;jettySize=auto;html=1;labelBackgroundColor=none;fontColor=default;sketch=1;curveFitting=1;jiggle=2;" edge="1" parent="WIyWlLk6GJQsqaUBKTNV-1" source="xQQR9ApKteh3TJZAfMFf-0" target="xQQR9ApKteh3TJZAfMFf-3">
          <mxGeometry relative="1" as="geometry" />
        </mxCell>
        <mxCell id="xQQR9ApKteh3TJZAfMFf-0" value="roots = [], threshold = 1e-6" style="shape=hexagon;perimeter=hexagonPerimeter2;whiteSpace=wrap;html=1;fixedSize=1;labelBackgroundColor=none;rounded=0;sketch=1;curveFitting=1;jiggle=2;" vertex="1" parent="WIyWlLk6GJQsqaUBKTNV-1">
          <mxGeometry x="307.5" y="110" width="175" height="30" as="geometry" />
        </mxCell>
        <mxCell id="xQQR9ApKteh3TJZAfMFf-2" value="" style="edgeStyle=orthogonalEdgeStyle;rounded=0;orthogonalLoop=1;jettySize=auto;html=1;labelBackgroundColor=none;fontColor=default;sketch=1;curveFitting=1;jiggle=2;" edge="1" parent="WIyWlLk6GJQsqaUBKTNV-1" source="xQQR9ApKteh3TJZAfMFf-1" target="xQQR9ApKteh3TJZAfMFf-0">
          <mxGeometry relative="1" as="geometry" />
        </mxCell>
        <mxCell id="xQQR9ApKteh3TJZAfMFf-1" value="START" style="ellipse;whiteSpace=wrap;html=1;labelBackgroundColor=none;rounded=0;sketch=1;curveFitting=1;jiggle=2;" vertex="1" parent="WIyWlLk6GJQsqaUBKTNV-1">
          <mxGeometry x="350" y="50" width="90" height="30" as="geometry" />
        </mxCell>
        <mxCell id="xQQR9ApKteh3TJZAfMFf-6" value="" style="edgeStyle=orthogonalEdgeStyle;rounded=0;orthogonalLoop=1;jettySize=auto;html=1;labelBackgroundColor=none;fontColor=default;sketch=1;curveFitting=1;jiggle=2;" edge="1" parent="WIyWlLk6GJQsqaUBKTNV-1" source="xQQR9ApKteh3TJZAfMFf-3" target="xQQR9ApKteh3TJZAfMFf-5">
          <mxGeometry relative="1" as="geometry" />
        </mxCell>
        <mxCell id="xQQR9ApKteh3TJZAfMFf-3" value="Input f, x_range, y_range" style="shape=parallelogram;perimeter=parallelogramPerimeter;whiteSpace=wrap;html=1;fixedSize=1;labelBackgroundColor=none;rounded=0;sketch=1;curveFitting=1;jiggle=2;" vertex="1" parent="WIyWlLk6GJQsqaUBKTNV-1">
          <mxGeometry x="335" y="170" width="120" height="40" as="geometry" />
        </mxCell>
        <mxCell id="xQQR9ApKteh3TJZAfMFf-9" value="" style="edgeStyle=orthogonalEdgeStyle;rounded=0;orthogonalLoop=1;jettySize=auto;html=1;labelBackgroundColor=none;fontColor=default;sketch=1;curveFitting=1;jiggle=2;" edge="1" parent="WIyWlLk6GJQsqaUBKTNV-1" source="xQQR9ApKteh3TJZAfMFf-5" target="xQQR9ApKteh3TJZAfMFf-8">
          <mxGeometry relative="1" as="geometry" />
        </mxCell>
        <mxCell id="xQQR9ApKteh3TJZAfMFf-31" style="edgeStyle=orthogonalEdgeStyle;rounded=0;orthogonalLoop=1;jettySize=auto;html=1;labelBackgroundColor=none;fontColor=default;sketch=1;curveFitting=1;jiggle=2;" edge="1" parent="WIyWlLk6GJQsqaUBKTNV-1" source="xQQR9ApKteh3TJZAfMFf-5" target="xQQR9ApKteh3TJZAfMFf-10">
          <mxGeometry relative="1" as="geometry">
            <mxPoint x="395" y="300" as="targetPoint" />
          </mxGeometry>
        </mxCell>
        <mxCell id="xQQR9ApKteh3TJZAfMFf-5" value="for x in x_range" style="shape=hexagon;perimeter=hexagonPerimeter2;whiteSpace=wrap;html=1;fixedSize=1;labelBackgroundColor=none;rounded=0;sketch=1;curveFitting=1;jiggle=2;" vertex="1" parent="WIyWlLk6GJQsqaUBKTNV-1">
          <mxGeometry x="312.5" y="250" width="165" height="30" as="geometry" />
        </mxCell>
        <mxCell id="xQQR9ApKteh3TJZAfMFf-8" value="END" style="ellipse;whiteSpace=wrap;html=1;labelBackgroundColor=none;rounded=0;sketch=1;curveFitting=1;jiggle=2;" vertex="1" parent="WIyWlLk6GJQsqaUBKTNV-1">
          <mxGeometry x="140" y="380" width="90" height="30" as="geometry" />
        </mxCell>
        <mxCell id="xQQR9ApKteh3TJZAfMFf-17" value="" style="edgeStyle=orthogonalEdgeStyle;rounded=0;orthogonalLoop=1;jettySize=auto;html=1;labelBackgroundColor=none;fontColor=default;sketch=1;curveFitting=1;jiggle=2;" edge="1" parent="WIyWlLk6GJQsqaUBKTNV-1" source="xQQR9ApKteh3TJZAfMFf-10" target="xQQR9ApKteh3TJZAfMFf-16">
          <mxGeometry relative="1" as="geometry" />
        </mxCell>
        <mxCell id="xQQR9ApKteh3TJZAfMFf-38" style="edgeStyle=orthogonalEdgeStyle;rounded=0;orthogonalLoop=1;jettySize=auto;html=1;entryX=0;entryY=0.5;entryDx=0;entryDy=0;exitX=0;exitY=0.5;exitDx=0;exitDy=0;labelBackgroundColor=none;fontColor=default;sketch=1;curveFitting=1;jiggle=2;" edge="1" parent="WIyWlLk6GJQsqaUBKTNV-1" source="xQQR9ApKteh3TJZAfMFf-10" target="xQQR9ApKteh3TJZAfMFf-5">
          <mxGeometry relative="1" as="geometry">
            <Array as="points">
              <mxPoint x="260" y="365" />
              <mxPoint x="260" y="265" />
            </Array>
          </mxGeometry>
        </mxCell>
        <mxCell id="xQQR9ApKteh3TJZAfMFf-10" value="for y in y_range" style="shape=hexagon;perimeter=hexagonPerimeter2;whiteSpace=wrap;html=1;fixedSize=1;labelBackgroundColor=none;rounded=0;sketch=1;curveFitting=1;jiggle=2;" vertex="1" parent="WIyWlLk6GJQsqaUBKTNV-1">
          <mxGeometry x="312.5" y="350" width="165" height="30" as="geometry" />
        </mxCell>
        <mxCell id="xQQR9ApKteh3TJZAfMFf-19" value="" style="edgeStyle=orthogonalEdgeStyle;rounded=0;orthogonalLoop=1;jettySize=auto;html=1;labelBackgroundColor=none;fontColor=default;sketch=1;curveFitting=1;jiggle=2;" edge="1" parent="WIyWlLk6GJQsqaUBKTNV-1" source="xQQR9ApKteh3TJZAfMFf-16" target="xQQR9ApKteh3TJZAfMFf-18">
          <mxGeometry relative="1" as="geometry" />
        </mxCell>
        <mxCell id="xQQR9ApKteh3TJZAfMFf-22" value="True" style="edgeLabel;html=1;align=center;verticalAlign=middle;resizable=0;points=[];labelBackgroundColor=none;rounded=0;sketch=1;curveFitting=1;jiggle=2;" vertex="1" connectable="0" parent="xQQR9ApKteh3TJZAfMFf-19">
          <mxGeometry x="-0.4159" y="1" relative="1" as="geometry">
            <mxPoint as="offset" />
          </mxGeometry>
        </mxCell>
        <mxCell id="xQQR9ApKteh3TJZAfMFf-23" style="edgeStyle=orthogonalEdgeStyle;rounded=0;orthogonalLoop=1;jettySize=auto;html=1;exitX=1;exitY=0.5;exitDx=0;exitDy=0;entryX=1;entryY=0.5;entryDx=0;entryDy=0;labelBackgroundColor=none;fontColor=default;sketch=1;curveFitting=1;jiggle=2;" edge="1" parent="WIyWlLk6GJQsqaUBKTNV-1" source="xQQR9ApKteh3TJZAfMFf-16" target="xQQR9ApKteh3TJZAfMFf-21">
          <mxGeometry relative="1" as="geometry">
            <Array as="points">
              <mxPoint x="510" y="485" />
              <mxPoint x="510" y="635" />
            </Array>
          </mxGeometry>
        </mxCell>
        <mxCell id="xQQR9ApKteh3TJZAfMFf-24" value="False" style="edgeLabel;html=1;align=center;verticalAlign=middle;resizable=0;points=[];labelBackgroundColor=none;rounded=0;sketch=1;curveFitting=1;jiggle=2;" vertex="1" connectable="0" parent="xQQR9ApKteh3TJZAfMFf-23">
          <mxGeometry x="-0.0719" y="-2" relative="1" as="geometry">
            <mxPoint y="-24" as="offset" />
          </mxGeometry>
        </mxCell>
        <mxCell id="xQQR9ApKteh3TJZAfMFf-16" value="if f(x, y) &amp;lt; threshold" style="rhombus;whiteSpace=wrap;html=1;labelBackgroundColor=none;rounded=0;sketch=1;curveFitting=1;jiggle=2;" vertex="1" parent="WIyWlLk6GJQsqaUBKTNV-1">
          <mxGeometry x="350" y="445" width="90" height="80" as="geometry" />
        </mxCell>
        <mxCell id="xQQR9ApKteh3TJZAfMFf-25" style="edgeStyle=orthogonalEdgeStyle;rounded=0;orthogonalLoop=1;jettySize=auto;html=1;entryX=0.5;entryY=0;entryDx=0;entryDy=0;labelBackgroundColor=none;fontColor=default;sketch=1;curveFitting=1;jiggle=2;" edge="1" parent="WIyWlLk6GJQsqaUBKTNV-1" source="xQQR9ApKteh3TJZAfMFf-18" target="xQQR9ApKteh3TJZAfMFf-21">
          <mxGeometry relative="1" as="geometry" />
        </mxCell>
        <mxCell id="xQQR9ApKteh3TJZAfMFf-18" value="roots append (x,y)" style="whiteSpace=wrap;html=1;labelBackgroundColor=none;rounded=0;sketch=1;curveFitting=1;jiggle=2;" vertex="1" parent="WIyWlLk6GJQsqaUBKTNV-1">
          <mxGeometry x="340" y="560" width="110" height="30" as="geometry" />
        </mxCell>
        <mxCell id="xQQR9ApKteh3TJZAfMFf-32" style="edgeStyle=orthogonalEdgeStyle;rounded=0;orthogonalLoop=1;jettySize=auto;html=1;entryX=0;entryY=0.5;entryDx=0;entryDy=0;labelBackgroundColor=none;fontColor=default;sketch=1;curveFitting=1;jiggle=2;" edge="1" parent="WIyWlLk6GJQsqaUBKTNV-1" source="xQQR9ApKteh3TJZAfMFf-21" target="xQQR9ApKteh3TJZAfMFf-10">
          <mxGeometry relative="1" as="geometry">
            <mxPoint x="260" y="360" as="targetPoint" />
            <Array as="points">
              <mxPoint x="260" y="635" />
              <mxPoint x="260" y="365" />
            </Array>
          </mxGeometry>
        </mxCell>
        <mxCell id="xQQR9ApKteh3TJZAfMFf-21" value="" style="ellipse;whiteSpace=wrap;html=1;aspect=fixed;labelBackgroundColor=none;rounded=0;sketch=1;curveFitting=1;jiggle=2;" vertex="1" parent="WIyWlLk6GJQsqaUBKTNV-1">
          <mxGeometry x="380" y="620" width="30" height="30" as="geometry" />
        </mxCell>
      </root>
    </mxGraphModel>
  </diagram>
</mxfile>
